<svg xmlns="http://www.w3.org/2000/svg" xmlns:xlink="http://www.w3.org/1999/xlink" width="2000" zoomAndPan="magnify" viewBox="0 0 1500 374.999991" height="500" preserveAspectRatio="xMidYMid meet" version="1.0"><defs><g/><clipPath id="589558c9bc"><path d="M 14.007812 95.183594 L 708.53125 95.183594 L 708.53125 279.816406 L 14.007812 279.816406 Z M 14.007812 95.183594 " clip-rule="nonzero"/></clipPath><clipPath id="ee383d914b"><path d="M 15.507812 95.183594 L 706.757812 95.183594 C 707.15625 95.183594 707.539062 95.34375 707.820312 95.625 C 708.101562 95.90625 708.257812 96.289062 708.257812 96.683594 L 708.257812 278.316406 C 708.257812 278.710938 708.101562 279.09375 707.820312 279.375 C 707.539062 279.65625 707.15625 279.816406 706.757812 279.816406 L 15.507812 279.816406 C 15.109375 279.816406 14.730469 279.65625 14.449219 279.375 C 14.167969 279.09375 14.007812 278.710938 14.007812 278.316406 L 14.007812 96.683594 C 14.007812 96.289062 14.167969 95.90625 14.449219 95.625 C 14.730469 95.34375 15.109375 95.183594 15.507812 95.183594 Z M 15.507812 95.183594 " clip-rule="nonzero"/></clipPath><clipPath id="46c955ff6d"><path d="M 0.0078125 0.183594 L 694.480469 0.183594 L 694.480469 184.816406 L 0.0078125 184.816406 Z M 0.0078125 0.183594 " clip-rule="nonzero"/></clipPath><clipPath id="8623411b11"><path d="M 1.507812 0.183594 L 692.757812 0.183594 C 693.15625 0.183594 693.539062 0.34375 693.820312 0.625 C 694.101562 0.90625 694.257812 1.289062 694.257812 1.683594 L 694.257812 183.316406 C 694.257812 183.710938 694.101562 184.09375 693.820312 184.375 C 693.539062 184.65625 693.15625 184.816406 692.757812 184.816406 L 1.507812 184.816406 C 1.109375 184.816406 0.730469 184.65625 0.449219 184.375 C 0.167969 184.09375 0.0078125 183.710938 0.0078125 183.316406 L 0.0078125 1.683594 C 0.0078125 1.289062 0.167969 0.90625 0.449219 0.625 C 0.730469 0.34375 1.109375 0.183594 1.507812 0.183594 Z M 1.507812 0.183594 " clip-rule="nonzero"/></clipPath><clipPath id="4786207257"><rect x="0" width="695" y="0" height="185"/></clipPath><clipPath id="2f5c41f501"><rect x="0" width="1458" y="0" height="183"/></clipPath></defs><g clip-path="url(#589558c9bc)"><g clip-path="url(#ee383d914b)"><g transform="matrix(1, 0, 0, 1, 14, 95)"><g clip-path="url(#4786207257)"><g clip-path="url(#46c955ff6d)"><g clip-path="url(#8623411b11)"><path fill="#ffca5c" d="M 0.0078125 0.183594 L 694.53125 0.183594 L 694.53125 184.816406 L 0.0078125 184.816406 Z M 0.0078125 0.183594 " fill-opacity="1" fill-rule="nonzero"/></g></g></g></g></g></g><g transform="matrix(1, 0, 0, 1, 25, 92)"><g clip-path="url(#2f5c41f501)"><g fill="#1c1c1e" fill-opacity="1"><g transform="translate(0.966239, 143.664583)"><g><path d="M 7.5 -57.28125 C 9.15625 -66.019531 13.234375 -72.757812 19.734375 -77.5 C 26.242188 -82.238281 34.859375 -84.609375 45.578125 -84.609375 C 57.960938 -84.609375 67.300781 -81.5625 73.59375 -75.46875 C 79.894531 -69.382812 83.046875 -60.460938 83.046875 -48.703125 L 83.046875 -22.015625 C 83.046875 -19.410156 83.535156 -17.691406 84.515625 -16.859375 C 85.503906 -16.023438 86.78125 -15.609375 88.34375 -15.609375 L 91.3125 -15.609375 L 91.3125 0 L 86.9375 0.15625 C 85.488281 0.15625 83.59375 0.15625 81.25 0.15625 C 78.90625 0.15625 76.507812 -0.179688 74.0625 -0.859375 C 71.613281 -1.535156 69.453125 -2.785156 67.578125 -4.609375 C 65.710938 -6.429688 64.519531 -9.054688 64 -12.484375 C 62.019531 -8.328125 58.6875 -4.894531 54 -2.1875 C 49.320312 0.519531 43.289062 1.875 35.90625 1.875 C 30.382812 1.875 25.359375 0.910156 20.828125 -1.015625 C 16.304688 -2.941406 12.742188 -5.671875 10.140625 -9.203125 C 7.546875 -12.742188 6.25 -16.910156 6.25 -21.703125 C 6.25 -26.898438 7.492188 -31.109375 9.984375 -34.328125 C 12.484375 -37.554688 16.070312 -40.132812 20.75 -42.0625 C 25.4375 -43.988281 31.0625 -45.628906 37.625 -46.984375 L 60.40625 -51.515625 C 60.40625 -63.484375 55.410156 -69.46875 45.421875 -69.46875 C 37.097656 -69.46875 32.050781 -64.988281 30.28125 -56.03125 Z M 29.34375 -22.484375 C 29.34375 -19.878906 30.4375 -17.664062 32.625 -15.84375 C 34.8125 -14.019531 38.140625 -13.109375 42.609375 -13.109375 C 47.816406 -13.109375 52.160156 -15.054688 55.640625 -18.953125 C 59.128906 -22.859375 60.875 -28.613281 60.875 -36.21875 L 60.875 -37.15625 L 46.515625 -34.5 C 43.285156 -33.875 40.367188 -33.195312 37.765625 -32.46875 C 35.171875 -31.738281 33.117188 -30.617188 31.609375 -29.109375 C 30.097656 -27.597656 29.34375 -25.390625 29.34375 -22.484375 Z M 29.34375 -22.484375 "/></g></g></g><g fill="#1c1c1e" fill-opacity="1"><g transform="translate(89.313004, 143.664583)"><g><path d="M 88.1875 -110.828125 L 88.1875 0 L 66.65625 0 L 66.1875 -11.859375 C 63.894531 -7.492188 60.640625 -4.113281 56.421875 -1.71875 C 52.210938 0.675781 47.085938 1.875 41.046875 1.875 C 33.453125 1.875 27.050781 -0.046875 21.84375 -3.890625 C 16.644531 -7.742188 12.71875 -12.945312 10.0625 -19.5 C 7.414062 -26.0625 6.09375 -33.347656 6.09375 -41.359375 C 6.09375 -49.484375 7.414062 -56.796875 10.0625 -63.296875 C 12.71875 -69.796875 16.644531 -74.972656 21.84375 -78.828125 C 27.050781 -82.679688 33.453125 -84.609375 41.046875 -84.609375 C 46.773438 -84.609375 51.691406 -83.488281 55.796875 -81.25 C 59.910156 -79.007812 63.21875 -75.753906 65.71875 -71.484375 L 65.71875 -110.828125 Z M 29.1875 -41.359375 C 29.1875 -36.785156 29.863281 -32.546875 31.21875 -28.640625 C 32.570312 -24.742188 34.648438 -21.597656 37.453125 -19.203125 C 40.265625 -16.804688 43.804688 -15.609375 48.078125 -15.609375 C 52.453125 -15.609375 56.039062 -16.804688 58.84375 -19.203125 C 61.65625 -21.597656 63.738281 -24.769531 65.09375 -28.71875 C 66.445312 -32.675781 67.125 -36.890625 67.125 -41.359375 C 67.125 -46.148438 66.445312 -50.519531 65.09375 -54.46875 C 63.738281 -58.425781 61.65625 -61.601562 58.84375 -64 C 56.039062 -66.394531 52.453125 -67.59375 48.078125 -67.59375 C 43.703125 -67.59375 40.109375 -66.394531 37.296875 -64 C 34.492188 -61.601562 32.441406 -58.425781 31.140625 -54.46875 C 29.835938 -50.519531 29.1875 -46.148438 29.1875 -41.359375 Z M 29.1875 -41.359375 "/></g></g></g><g fill="#1c1c1e" fill-opacity="1"><g transform="translate(181.561813, 143.664583)"><g><path d="M 88.1875 -110.828125 L 88.1875 0 L 66.65625 0 L 66.1875 -11.859375 C 63.894531 -7.492188 60.640625 -4.113281 56.421875 -1.71875 C 52.210938 0.675781 47.085938 1.875 41.046875 1.875 C 33.453125 1.875 27.050781 -0.046875 21.84375 -3.890625 C 16.644531 -7.742188 12.71875 -12.945312 10.0625 -19.5 C 7.414062 -26.0625 6.09375 -33.347656 6.09375 -41.359375 C 6.09375 -49.484375 7.414062 -56.796875 10.0625 -63.296875 C 12.71875 -69.796875 16.644531 -74.972656 21.84375 -78.828125 C 27.050781 -82.679688 33.453125 -84.609375 41.046875 -84.609375 C 46.773438 -84.609375 51.691406 -83.488281 55.796875 -81.25 C 59.910156 -79.007812 63.21875 -75.753906 65.71875 -71.484375 L 65.71875 -110.828125 Z M 29.1875 -41.359375 C 29.1875 -36.785156 29.863281 -32.546875 31.21875 -28.640625 C 32.570312 -24.742188 34.648438 -21.597656 37.453125 -19.203125 C 40.265625 -16.804688 43.804688 -15.609375 48.078125 -15.609375 C 52.453125 -15.609375 56.039062 -16.804688 58.84375 -19.203125 C 61.65625 -21.597656 63.738281 -24.769531 65.09375 -28.71875 C 66.445312 -32.675781 67.125 -36.890625 67.125 -41.359375 C 67.125 -46.148438 66.445312 -50.519531 65.09375 -54.46875 C 63.738281 -58.425781 61.65625 -61.601562 58.84375 -64 C 56.039062 -66.394531 52.453125 -67.59375 48.078125 -67.59375 C 43.703125 -67.59375 40.109375 -66.394531 37.296875 -64 C 34.492188 -61.601562 32.441406 -58.425781 31.140625 -54.46875 C 29.835938 -50.519531 29.1875 -46.148438 29.1875 -41.359375 Z M 29.1875 -41.359375 "/></g></g></g><g fill="#1c1c1e" fill-opacity="1"><g transform="translate(272.405806, 143.664583)"><g><path d="M 10.921875 -82.734375 L 33.40625 -82.734375 L 33.40625 0 L 10.921875 0 Z M 10.609375 -93.65625 L 10.609375 -110.828125 L 33.875 -110.828125 L 33.875 -93.65625 Z M 10.609375 -93.65625 "/></g></g></g><g fill="#1c1c1e" fill-opacity="1"><g transform="translate(309.867216, 143.664583)"><g><path d="M 64.78125 -51.359375 C 64.050781 -56.453125 62.175781 -60.328125 59.15625 -62.984375 C 56.144531 -65.640625 52.503906 -66.96875 48.234375 -66.96875 C 42.191406 -66.96875 37.53125 -64.726562 34.25 -60.25 C 30.976562 -55.78125 29.34375 -49.484375 29.34375 -41.359375 C 29.34375 -33.242188 30.976562 -26.945312 34.25 -22.46875 C 37.53125 -18 42.191406 -15.765625 48.234375 -15.765625 C 52.703125 -15.765625 56.472656 -17.140625 59.546875 -19.890625 C 62.617188 -22.648438 64.519531 -26.738281 65.25 -32.15625 L 88.5 -31.21875 C 87.769531 -24.457031 85.554688 -18.578125 81.859375 -13.578125 C 78.171875 -8.585938 73.4375 -4.765625 67.65625 -2.109375 C 61.882812 0.546875 55.410156 1.875 48.234375 1.875 C 39.804688 1.875 32.441406 0.109375 26.140625 -3.421875 C 19.847656 -6.960938 14.957031 -11.984375 11.46875 -18.484375 C 7.988281 -24.992188 6.25 -32.617188 6.25 -41.359375 C 6.25 -50.109375 7.988281 -57.707031 11.46875 -64.15625 C 14.957031 -70.601562 19.847656 -75.625 26.140625 -79.21875 C 32.441406 -82.8125 39.804688 -84.609375 48.234375 -84.609375 C 55.203125 -84.609375 61.546875 -83.304688 67.265625 -80.703125 C 72.992188 -78.097656 77.675781 -74.425781 81.3125 -69.6875 C 84.957031 -64.957031 87.144531 -59.265625 87.875 -52.609375 Z M 64.78125 -51.359375 "/></g></g></g><g fill="#1c1c1e" fill-opacity="1"><g transform="translate(392.750722, 143.664583)"><g><path d="M 20.296875 -101.46875 L 42.765625 -101.46875 L 42.765625 -82.734375 L 64.625 -82.734375 L 64.625 -65.875 L 42.765625 -65.875 L 42.765625 -26.53125 C 42.765625 -20.1875 45.835938 -17.015625 51.984375 -17.015625 L 64.78125 -17.015625 L 64.78125 0 L 47.609375 0 C 29.398438 0 20.296875 -8.84375 20.296875 -26.53125 L 20.296875 -65.875 L 7.03125 -65.875 L 7.03125 -82.734375 L 20.296875 -82.734375 Z M 20.296875 -101.46875 "/></g></g></g><g fill="#1c1c1e" fill-opacity="1"><g transform="translate(456.123015, 143.664583)"><g><path d="M 10.921875 -82.734375 L 33.40625 -82.734375 L 33.40625 0 L 10.921875 0 Z M 10.609375 -93.65625 L 10.609375 -110.828125 L 33.875 -110.828125 L 33.875 -93.65625 Z M 10.609375 -93.65625 "/></g></g></g><g fill="#1c1c1e" fill-opacity="1"><g transform="translate(494.208831, 143.664583)"><g><path d="M 88.34375 -82.734375 L 57.75 0 L 33.875 0 L 3.28125 -82.734375 L 25.28125 -82.734375 L 45.734375 -22.640625 L 66.34375 -82.734375 Z M 88.34375 -82.734375 "/></g></g></g><g fill="#1c1c1e" fill-opacity="1"><g transform="translate(575.375318, 143.664583)"><g><path d="M 6.40625 -41.359375 C 6.40625 -50.109375 8.144531 -57.707031 11.625 -64.15625 C 15.113281 -70.601562 19.976562 -75.625 26.21875 -79.21875 C 32.46875 -82.8125 39.804688 -84.609375 48.234375 -84.609375 C 55.722656 -84.609375 62.484375 -82.914062 68.515625 -79.53125 C 74.554688 -76.144531 79.34375 -71.148438 82.875 -64.546875 C 86.414062 -57.941406 88.1875 -49.742188 88.1875 -39.953125 L 88.34375 -35.4375 L 29.8125 -35.4375 C 30.226562 -29.082031 32.046875 -24.109375 35.265625 -20.515625 C 38.492188 -16.929688 42.816406 -15.140625 48.234375 -15.140625 C 51.773438 -15.140625 55.023438 -16.101562 57.984375 -18.03125 C 60.953125 -19.957031 63.113281 -22.53125 64.46875 -25.75 L 87.09375 -24.03125 C 84.601562 -16.125 79.84375 -9.828125 72.8125 -5.140625 C 65.789062 -0.460938 57.597656 1.875 48.234375 1.875 C 39.804688 1.875 32.46875 0.109375 26.21875 -3.421875 C 19.976562 -6.960938 15.113281 -11.984375 11.625 -18.484375 C 8.144531 -24.992188 6.40625 -32.617188 6.40625 -41.359375 Z M 29.96875 -49.484375 L 65.40625 -49.484375 C 64.675781 -55.929688 62.695312 -60.5625 59.46875 -63.375 C 56.25 -66.1875 52.503906 -67.59375 48.234375 -67.59375 C 43.128906 -67.59375 38.988281 -65.976562 35.8125 -62.75 C 32.644531 -59.519531 30.695312 -55.097656 29.96875 -49.484375 Z M 29.96875 -49.484375 "/></g></g></g><g fill="#1c1c1e" fill-opacity="1"><g transform="translate(663.878085, 143.664583)"><g/></g></g><g fill="#1c1c1e" fill-opacity="1"><g transform="translate(693.691211, 143.664583)"><g><path d="M 12.484375 -110.828125 L 34.96875 -110.828125 L 34.96875 -23.265625 C 34.96875 -19.097656 36.992188 -17.015625 41.046875 -17.015625 L 47.140625 -17.015625 L 47.140625 0 L 34.8125 0 C 28.144531 0 22.753906 -1.945312 18.640625 -5.84375 C 14.535156 -9.75 12.484375 -15.242188 12.484375 -22.328125 Z M 12.484375 -110.828125 "/></g></g></g><g fill="#1c1c1e" fill-opacity="1"><g transform="translate(738.6451, 143.664583)"><g><path d="M 6.40625 -41.359375 C 6.40625 -50.109375 8.144531 -57.707031 11.625 -64.15625 C 15.113281 -70.601562 19.976562 -75.625 26.21875 -79.21875 C 32.46875 -82.8125 39.804688 -84.609375 48.234375 -84.609375 C 55.722656 -84.609375 62.484375 -82.914062 68.515625 -79.53125 C 74.554688 -76.144531 79.34375 -71.148438 82.875 -64.546875 C 86.414062 -57.941406 88.1875 -49.742188 88.1875 -39.953125 L 88.34375 -35.4375 L 29.8125 -35.4375 C 30.226562 -29.082031 32.046875 -24.109375 35.265625 -20.515625 C 38.492188 -16.929688 42.816406 -15.140625 48.234375 -15.140625 C 51.773438 -15.140625 55.023438 -16.101562 57.984375 -18.03125 C 60.953125 -19.957031 63.113281 -22.53125 64.46875 -25.75 L 87.09375 -24.03125 C 84.601562 -16.125 79.84375 -9.828125 72.8125 -5.140625 C 65.789062 -0.460938 57.597656 1.875 48.234375 1.875 C 39.804688 1.875 32.46875 0.109375 26.21875 -3.421875 C 19.976562 -6.960938 15.113281 -11.984375 11.625 -18.484375 C 8.144531 -24.992188 6.40625 -32.617188 6.40625 -41.359375 Z M 29.96875 -49.484375 L 65.40625 -49.484375 C 64.675781 -55.929688 62.695312 -60.5625 59.46875 -63.375 C 56.25 -66.1875 52.503906 -67.59375 48.234375 -67.59375 C 43.128906 -67.59375 38.988281 -65.976562 35.8125 -62.75 C 32.644531 -59.519531 30.695312 -55.097656 29.96875 -49.484375 Z M 29.96875 -49.484375 "/></g></g></g><g fill="#1c1c1e" fill-opacity="1"><g transform="translate(828.240479, 143.664583)"><g><path d="M 7.5 -57.28125 C 9.15625 -66.019531 13.234375 -72.757812 19.734375 -77.5 C 26.242188 -82.238281 34.859375 -84.609375 45.578125 -84.609375 C 57.960938 -84.609375 67.300781 -81.5625 73.59375 -75.46875 C 79.894531 -69.382812 83.046875 -60.460938 83.046875 -48.703125 L 83.046875 -22.015625 C 83.046875 -19.410156 83.535156 -17.691406 84.515625 -16.859375 C 85.503906 -16.023438 86.78125 -15.609375 88.34375 -15.609375 L 91.3125 -15.609375 L 91.3125 0 L 86.9375 0.15625 C 85.488281 0.15625 83.59375 0.15625 81.25 0.15625 C 78.90625 0.15625 76.507812 -0.179688 74.0625 -0.859375 C 71.613281 -1.535156 69.453125 -2.785156 67.578125 -4.609375 C 65.710938 -6.429688 64.519531 -9.054688 64 -12.484375 C 62.019531 -8.328125 58.6875 -4.894531 54 -2.1875 C 49.320312 0.519531 43.289062 1.875 35.90625 1.875 C 30.382812 1.875 25.359375 0.910156 20.828125 -1.015625 C 16.304688 -2.941406 12.742188 -5.671875 10.140625 -9.203125 C 7.546875 -12.742188 6.25 -16.910156 6.25 -21.703125 C 6.25 -26.898438 7.492188 -31.109375 9.984375 -34.328125 C 12.484375 -37.554688 16.070312 -40.132812 20.75 -42.0625 C 25.4375 -43.988281 31.0625 -45.628906 37.625 -46.984375 L 60.40625 -51.515625 C 60.40625 -63.484375 55.410156 -69.46875 45.421875 -69.46875 C 37.097656 -69.46875 32.050781 -64.988281 30.28125 -56.03125 Z M 29.34375 -22.484375 C 29.34375 -19.878906 30.4375 -17.664062 32.625 -15.84375 C 34.8125 -14.019531 38.140625 -13.109375 42.609375 -13.109375 C 47.816406 -13.109375 52.160156 -15.054688 55.640625 -18.953125 C 59.128906 -22.859375 60.875 -28.613281 60.875 -36.21875 L 60.875 -37.15625 L 46.515625 -34.5 C 43.285156 -33.875 40.367188 -33.195312 37.765625 -32.46875 C 35.171875 -31.738281 33.117188 -30.617188 31.609375 -29.109375 C 30.097656 -27.597656 29.34375 -25.390625 29.34375 -22.484375 Z M 29.34375 -22.484375 "/></g></g></g><g fill="#1c1c1e" fill-opacity="1"><g transform="translate(916.587243, 143.664583)"><g><path d="M 88.1875 -110.828125 L 88.1875 0 L 66.65625 0 L 66.1875 -11.859375 C 63.894531 -7.492188 60.640625 -4.113281 56.421875 -1.71875 C 52.210938 0.675781 47.085938 1.875 41.046875 1.875 C 33.453125 1.875 27.050781 -0.046875 21.84375 -3.890625 C 16.644531 -7.742188 12.71875 -12.945312 10.0625 -19.5 C 7.414062 -26.0625 6.09375 -33.347656 6.09375 -41.359375 C 6.09375 -49.484375 7.414062 -56.796875 10.0625 -63.296875 C 12.71875 -69.796875 16.644531 -74.972656 21.84375 -78.828125 C 27.050781 -82.679688 33.453125 -84.609375 41.046875 -84.609375 C 46.773438 -84.609375 51.691406 -83.488281 55.796875 -81.25 C 59.910156 -79.007812 63.21875 -75.753906 65.71875 -71.484375 L 65.71875 -110.828125 Z M 29.1875 -41.359375 C 29.1875 -36.785156 29.863281 -32.546875 31.21875 -28.640625 C 32.570312 -24.742188 34.648438 -21.597656 37.453125 -19.203125 C 40.265625 -16.804688 43.804688 -15.609375 48.078125 -15.609375 C 52.453125 -15.609375 56.039062 -16.804688 58.84375 -19.203125 C 61.65625 -21.597656 63.738281 -24.769531 65.09375 -28.71875 C 66.445312 -32.675781 67.125 -36.890625 67.125 -41.359375 C 67.125 -46.148438 66.445312 -50.519531 65.09375 -54.46875 C 63.738281 -58.425781 61.65625 -61.601562 58.84375 -64 C 56.039062 -66.394531 52.453125 -67.59375 48.078125 -67.59375 C 43.703125 -67.59375 40.109375 -66.394531 37.296875 -64 C 34.492188 -61.601562 32.441406 -58.425781 31.140625 -54.46875 C 29.835938 -50.519531 29.1875 -46.148438 29.1875 -41.359375 Z M 29.1875 -41.359375 "/></g></g></g><g fill="#1c1c1e" fill-opacity="1"><g transform="translate(1008.836052, 143.664583)"><g><path d="M 6.40625 -41.359375 C 6.40625 -50.109375 8.144531 -57.707031 11.625 -64.15625 C 15.113281 -70.601562 19.976562 -75.625 26.21875 -79.21875 C 32.46875 -82.8125 39.804688 -84.609375 48.234375 -84.609375 C 55.722656 -84.609375 62.484375 -82.914062 68.515625 -79.53125 C 74.554688 -76.144531 79.34375 -71.148438 82.875 -64.546875 C 86.414062 -57.941406 88.1875 -49.742188 88.1875 -39.953125 L 88.34375 -35.4375 L 29.8125 -35.4375 C 30.226562 -29.082031 32.046875 -24.109375 35.265625 -20.515625 C 38.492188 -16.929688 42.816406 -15.140625 48.234375 -15.140625 C 51.773438 -15.140625 55.023438 -16.101562 57.984375 -18.03125 C 60.953125 -19.957031 63.113281 -22.53125 64.46875 -25.75 L 87.09375 -24.03125 C 84.601562 -16.125 79.84375 -9.828125 72.8125 -5.140625 C 65.789062 -0.460938 57.597656 1.875 48.234375 1.875 C 39.804688 1.875 32.46875 0.109375 26.21875 -3.421875 C 19.976562 -6.960938 15.113281 -11.984375 11.625 -18.484375 C 8.144531 -24.992188 6.40625 -32.617188 6.40625 -41.359375 Z M 29.96875 -49.484375 L 65.40625 -49.484375 C 64.675781 -55.929688 62.695312 -60.5625 59.46875 -63.375 C 56.25 -66.1875 52.503906 -67.59375 48.234375 -67.59375 C 43.128906 -67.59375 38.988281 -65.976562 35.8125 -62.75 C 32.644531 -59.519531 30.695312 -55.097656 29.96875 -49.484375 Z M 29.96875 -49.484375 "/></g></g></g><g fill="#1c1c1e" fill-opacity="1"><g transform="translate(1095.934004, 143.664583)"><g><path d="M 10.921875 -82.734375 L 32.15625 -82.734375 L 32.625 -66.1875 C 34.1875 -71.695312 36.578125 -75.832031 39.796875 -78.59375 C 43.023438 -81.351562 47.296875 -82.734375 52.609375 -82.734375 L 60.25 -82.734375 L 60.25 -65.71875 L 52.453125 -65.71875 C 45.679688 -65.71875 40.8125 -64.101562 37.84375 -60.875 C 34.882812 -57.644531 33.40625 -52.804688 33.40625 -46.359375 L 33.40625 0 L 10.921875 0 Z M 10.921875 -82.734375 "/></g></g></g><g fill="#1c1c1e" fill-opacity="1"><g transform="translate(1149.784992, 143.664583)"><g><path d="M 59.625 -56.03125 C 58.894531 -59.988281 57.019531 -63.085938 54 -65.328125 C 50.988281 -67.566406 47.660156 -68.6875 44.015625 -68.6875 C 40.378906 -68.6875 37.335938 -67.773438 34.890625 -65.953125 C 32.441406 -64.128906 31.269531 -61.707031 31.375 -58.6875 C 31.476562 -55.46875 33.113281 -53.101562 36.28125 -51.59375 C 39.457031 -50.082031 43.023438 -48.960938 46.984375 -48.234375 C 58.847656 -46.359375 67.796875 -43.570312 73.828125 -39.875 C 79.867188 -36.1875 82.890625 -30.390625 82.890625 -22.484375 C 82.890625 -16.960938 81.300781 -12.40625 78.125 -8.8125 C 74.945312 -5.226562 70.625 -2.550781 65.15625 -0.78125 C 59.695312 0.988281 53.535156 1.875 46.671875 1.875 C 34.804688 1.875 25.257812 -0.59375 18.03125 -5.53125 C 10.800781 -10.476562 6.875 -17.375 6.25 -26.21875 L 28.875 -27.3125 C 29.707031 -23.257812 31.582031 -20.085938 34.5 -17.796875 C 37.414062 -15.503906 41.265625 -14.359375 46.046875 -14.359375 C 48.128906 -14.359375 50.234375 -14.644531 52.359375 -15.21875 C 54.492188 -15.789062 56.289062 -16.703125 57.75 -17.953125 C 59.207031 -19.203125 59.882812 -20.867188 59.78125 -22.953125 C 59.78125 -25.441406 58.945312 -27.3125 57.28125 -28.5625 C 55.613281 -29.8125 53.53125 -30.773438 51.03125 -31.453125 C 48.539062 -32.128906 45.941406 -32.726562 43.234375 -33.25 C 35.953125 -34.707031 29.679688 -36.394531 24.421875 -38.3125 C 19.171875 -40.238281 15.140625 -42.789062 12.328125 -45.96875 C 9.515625 -49.144531 8.109375 -53.28125 8.109375 -58.375 C 8.109375 -66.695312 11.359375 -73.175781 17.859375 -77.8125 C 24.367188 -82.445312 33.398438 -84.765625 44.953125 -84.765625 C 55.148438 -84.765625 63.550781 -82.289062 70.15625 -77.34375 C 76.769531 -72.40625 80.753906 -65.613281 82.109375 -56.96875 Z M 59.625 -56.03125 "/></g></g></g><g fill="#1c1c1e" fill-opacity="1"><g transform="translate(1231.419685, 143.664583)"><g><path d="M 10.921875 -110.828125 L 33.40625 -110.828125 L 33.40625 -72.109375 C 35.800781 -76.691406 39.101562 -79.921875 43.3125 -81.796875 C 47.53125 -83.671875 52.132812 -84.609375 57.125 -84.609375 C 63.164062 -84.609375 68.238281 -83.226562 72.34375 -80.46875 C 76.457031 -77.707031 79.582031 -73.984375 81.71875 -69.296875 C 83.851562 -64.617188 84.921875 -59.265625 84.921875 -53.234375 L 84.921875 0 L 62.4375 0 L 62.4375 -45.265625 C 62.4375 -52.023438 61.5 -57.175781 59.625 -60.71875 C 57.75 -64.257812 54.316406 -66.03125 49.328125 -66.03125 C 44.222656 -66.03125 40.289062 -64.257812 37.53125 -60.71875 C 34.78125 -57.175781 33.40625 -52.023438 33.40625 -45.265625 L 33.40625 0 L 10.921875 0 Z M 10.921875 -110.828125 "/></g></g></g><g fill="#1c1c1e" fill-opacity="1"><g transform="translate(1317.581027, 143.664583)"><g><path d="M 10.921875 -82.734375 L 33.40625 -82.734375 L 33.40625 0 L 10.921875 0 Z M 10.609375 -93.65625 L 10.609375 -110.828125 L 33.875 -110.828125 L 33.875 -93.65625 Z M 10.609375 -93.65625 "/></g></g></g><g fill="#1c1c1e" fill-opacity="1"><g transform="translate(1353.637622, 143.664583)"><g><path d="M 10.921875 23.421875 L 10.921875 -82.734375 L 32.46875 -82.734375 L 32.9375 -70.703125 C 35.226562 -75.179688 38.453125 -78.617188 42.609375 -81.015625 C 46.773438 -83.410156 51.71875 -84.609375 57.4375 -84.609375 C 65.351562 -84.609375 71.9375 -82.679688 77.1875 -78.828125 C 82.445312 -74.972656 86.398438 -69.796875 89.046875 -63.296875 C 91.703125 -56.796875 93.03125 -49.484375 93.03125 -41.359375 C 93.03125 -33.347656 91.703125 -26.0625 89.046875 -19.5 C 86.398438 -12.945312 82.445312 -7.742188 77.1875 -3.890625 C 71.9375 -0.046875 65.351562 1.875 57.4375 1.875 C 46.40625 1.875 38.394531 -2.597656 33.40625 -11.546875 L 33.40625 23.421875 Z M 31.84375 -41.359375 C 31.84375 -36.785156 32.519531 -32.546875 33.875 -28.640625 C 35.226562 -24.742188 37.304688 -21.597656 40.109375 -19.203125 C 42.921875 -16.804688 46.515625 -15.609375 50.890625 -15.609375 C 55.253906 -15.609375 58.816406 -16.78125 61.578125 -19.125 C 64.335938 -21.46875 66.394531 -24.613281 67.75 -28.5625 C 69.101562 -32.519531 69.78125 -36.785156 69.78125 -41.359375 C 69.78125 -45.941406 69.101562 -50.179688 67.75 -54.078125 C 66.394531 -57.984375 64.3125 -61.132812 61.5 -63.53125 C 58.6875 -65.925781 55.148438 -67.125 50.890625 -67.125 C 46.515625 -67.125 42.921875 -65.925781 40.109375 -63.53125 C 37.304688 -61.132812 35.226562 -57.984375 33.875 -54.078125 C 32.519531 -50.179688 31.84375 -45.941406 31.84375 -41.359375 Z M 31.84375 -41.359375 "/></g></g></g></g></g></svg>